<?xml version="1.0" encoding="UTF-8" standalone="no"?>
<!-- Created with Inkscape (http://www.inkscape.org/) -->

<svg
   version="1.1"
   id="svg1"
   width="1068.4933"
   height="1660.16"
   viewBox="0 0 1068.4933 1660.16"
   sodipodi:docname="equipment_hygiene.eps"
   xmlns:inkscape="http://www.inkscape.org/namespaces/inkscape"
   xmlns:sodipodi="http://sodipodi.sourceforge.net/DTD/sodipodi-0.dtd"
   xmlns="http://www.w3.org/2000/svg"
   xmlns:svg="http://www.w3.org/2000/svg">
  <defs
     id="defs1" />
  <sodipodi:namedview
     id="namedview1"
     pagecolor="#ffffff"
     bordercolor="#000000"
     borderopacity="0.25"
     inkscape:showpageshadow="2"
     inkscape:pageopacity="0.0"
     inkscape:pagecheckerboard="0"
     inkscape:deskcolor="#d1d1d1">
    <inkscape:page
       x="0"
       y="0"
       inkscape:label="1"
       id="page1"
       width="1068.4933"
       height="1660.16"
       margin="0"
       bleed="0" />
  </sodipodi:namedview>
  <g
     id="g1"
     inkscape:groupmode="layer"
     inkscape:label="1">
    <g
       id="group-R5">
      <path
         id="path2"
         d="m 4995.73,730.5 69.82,3263.33 107.63,-0.34 c 503.21,-4.58 648.1,733.62 689.5,1739.94 34.96,850.31 -850.95,753.3 -1022.47,791.69 -171.47,38.4 -846.64,32.26 -846.64,32.26 -2037.54,6.26 -1838.21,-684.96 -1838.21,-684.96 0,0 55.42,-992.75 210.38,-1497.43 155,-504.69 720.82,-374.81 720.82,-374.81 l 8.48,-0.03 128.19,-3324.349 C 1694.24,1030.7 554.82,2401.5 554.82,4038.5 c 0,1906.5 1545.53,3452.03 3452.04,3452.03 1906.51,0 3452.03,-1545.53 3452.03,-3452.03 0,-1562.81 -1038.61,-2882.8 -2463.16,-3308 z m 2909.91,4260.18 c -163.66,663.37 -477.28,1259.69 -848.87,1824.9 -402.11,611.63 -822.66,1211.16 -1235.63,1815.64 -801.28,1172.84 -1492.1,2398.18 -1810.31,3819.98 -11.85,-33.2 -19.42,-49.2 -23.24,-66 -157.93,-692.6 -412.75,-1349.6 -730.01,-1983.5 C 2830.01,9547.33 2290.16,8763.21 1744.53,7982.62 1321,7376.71 896.465,6771.79 547.66,6117.38 85.3242,5249.97 -107.133,4338.76 58.7227,3359.57 213.27,2447.1 579.387,1643.7 1263.58,1007 1997.88,323.699 2883.04,23.8008 3876.55,1.40234 4691.44,-16.8984 5460.95,135 6165.46,560.898 7817.96,1560.1 8244.78,3616.05 7905.64,4990.68"
         style="fill:#231f20;fill-opacity:1;fill-rule:nonzero;stroke:none"
         transform="matrix(0.13333333,0,0,-0.13333333,0,1660.16)" />
    </g>
  </g>
</svg>
