<?xml version="1.0" encoding="UTF-8" standalone="no"?>
<!-- Created with Inkscape (http://www.inkscape.org/) -->

<svg
   version="1.1"
   id="svg1"
   width="1599.0133"
   height="1608.16"
   viewBox="0 0 1599.0133 1608.16"
   sodipodi:docname="Maintenance.eps"
   xmlns:inkscape="http://www.inkscape.org/namespaces/inkscape"
   xmlns:sodipodi="http://sodipodi.sourceforge.net/DTD/sodipodi-0.dtd"
   xmlns="http://www.w3.org/2000/svg"
   xmlns:svg="http://www.w3.org/2000/svg">
  <defs
     id="defs1" />
  <sodipodi:namedview
     id="namedview1"
     pagecolor="#ffffff"
     bordercolor="#000000"
     borderopacity="0.25"
     inkscape:showpageshadow="2"
     inkscape:pageopacity="0.0"
     inkscape:pagecheckerboard="0"
     inkscape:deskcolor="#d1d1d1">
    <inkscape:page
       x="0"
       y="0"
       inkscape:label="1"
       id="page1"
       width="1599.0133"
       height="1608.16"
       margin="0"
       bleed="0" />
  </sodipodi:namedview>
  <g
     id="g1"
     inkscape:groupmode="layer"
     inkscape:label="1">
    <g
       id="group-R5">
      <path
         id="path2"
         d="M 5162.06,6188.7 C 3841.95,7318.22 2684.78,8270.95 1575.31,9276.32 1140.99,9669.89 813.719,10181.6 416.34,10665.5 c 351.223,311.5 651.98,578.3 982.34,871.3 632.39,-421.9 1235.41,-922.5 1756.03,-1652.83 728.3,-1021.69 1777.65,-1814.53 2804.07,-2817.03 389.71,435.51 805.35,868.18 1175.96,1336.48 92.82,117.29 97.1,366.98 46.79,525.58 -508.81,1604.1 983.54,3540.9 2995.17,3056.5 -375.77,-381.8 -709.25,-745.6 -1069.46,-1080.7 -547.83,-509.7 -88.27,-1052.13 -37.99,-1567.05 13.6,-139.3 380.36,-273.32 604.66,-357.29 645.59,-241.68 1190.99,-118.16 1595.19,484.45 179.6,267.75 394.5,511.78 642.2,716.09 441.3,-1856.88 -977.7,-3340.12 -2742.25,-3082.59 -218.12,31.84 -509.02,-68.27 -688,-207.66 -439.61,-342.37 -833.59,-743.32 -1249.22,-1123.71 314.94,-433.03 540.38,-732.53 1047.41,-599.62 138.88,36.41 370.18,-101.56 496.45,-224.06 C 9638.15,4106.6 10478.8,3247.37 11337.7,2406.92 11654.5,2096.94 11694,1746.3 11465.8,1411 11263.2,1113.5 11000.1,839.699 10713.6,621.199 10348.6,342.801 9974.23,368.398 9625.89,725.602 8799.83,1572.6 7948.97,2395.51 7125.45,3244.95 c -133.92,138.13 -287.72,392.92 -245.75,540.84 141.01,496.92 -181.07,696.91 -611.84,1065.97 -435.74,-488.72 -880.14,-968.77 -1297.3,-1471.45 -78.29,-94.33 -83.24,-284.6 -61.93,-421.22 C 5197.76,1105 3846.78,-250.098 1870,38.9023 2251.38,431.801 2576.5,800.699 2937.25,1130.6 c 558.14,510.4 100.96,1052.5 43.3,1566.29 -15.86,141.31 -383.2,267.42 -606.77,356.55 C 1750.55,3301.88 1221.84,3190.94 818.359,2612.21 630.465,2342.7 403.449,2100.48 128.645,1890.3 -136.844,2706.77 17.1406,3403.28 511.676,4012.82 c 580.654,715.7 1371.874,1094.05 2260.434,893.22 616.95,-139.43 963.09,30.12 1342.16,445.86 256.19,280.97 597.83,484.01 1047.79,836.8"
         style="fill:#231f20;fill-opacity:1;fill-rule:nonzero;stroke:none"
         transform="matrix(0.13333333,0,0,-0.13333333,0,1608.16)" />
    </g>
  </g>
</svg>
