<?xml version="1.0" encoding="UTF-8" standalone="no"?>
<!-- Created with Inkscape (http://www.inkscape.org/) -->

<svg
   version="1.1"
   id="svg1"
   width="1776.1733"
   height="1715.8933"
   viewBox="0 0 1776.1733 1715.8933"
   sodipodi:docname="stalls.eps"
   xmlns:inkscape="http://www.inkscape.org/namespaces/inkscape"
   xmlns:sodipodi="http://sodipodi.sourceforge.net/DTD/sodipodi-0.dtd"
   xmlns="http://www.w3.org/2000/svg"
   xmlns:svg="http://www.w3.org/2000/svg">
  <defs
     id="defs1" />
  <sodipodi:namedview
     id="namedview1"
     pagecolor="#ffffff"
     bordercolor="#000000"
     borderopacity="0.25"
     inkscape:showpageshadow="2"
     inkscape:pageopacity="0.0"
     inkscape:pagecheckerboard="0"
     inkscape:deskcolor="#d1d1d1">
    <inkscape:page
       x="0"
       y="0"
       inkscape:label="1"
       id="page1"
       width="1776.1733"
       height="1715.8933"
       margin="0"
       bleed="0" />
  </sodipodi:namedview>
  <g
     id="g1"
     inkscape:groupmode="layer"
     inkscape:label="1">
    <g
       id="group-R5">
      <path
         id="path2"
         d="m 4962.95,11838 128.81,-7.2 132.39,57.3 82.51,85.7 17.69,89.6 68.19,60.7 89.25,-17.8 60.81,-68 21.46,-78.7 -21.48,-153.8 -46.52,-139.6 -121.66,-96.6 697.88,-465.3 207.31,14.4 186.06,93 114.51,200.4 282.66,-28.7 254.03,-78.7 236.34,-168.3 142.89,-214.6 640.45,-100.2 583.4,-200.5 565.09,-289.8 508.05,-390.01 425.73,-475.91 1177.1,-672.75 186,-139.56 118.1,-200.37 -143.2,-483.01 -268.3,-411.45 42.9,75.13 -218.3,-440.07 -343.5,-368.5 -232.6,0.02 -214.6,89.46 -1202.19,687.07 -611.82,150.32 -579.6,264.82 -511.42,325.52 -479.62,440.25 -386.38,486.63 -282.45,28.52 -239.93,103.91 -221.81,193.23 -143.11,214.69 114.51,200.36 -14.29,207.5 -103.74,225.4 -754.93,365.1 -21.47,-153.9 -71.58,-125.2 -146.7,-82.3 -78.72,-21.5 -89.44,17.9 -35.57,53.6 17.69,89.6 68.19,60.6 32,114.7 -17.88,143.1 -96.59,121.6 -125.2,304.2 c 0,0 -302.32,221.9 -307.84,277.7 -5.51,55.7 154.71,384 289.99,330.5 129.33,-51 304.12,-107.3 304.12,-107.3 l 336.33,7.1"
         style="fill:#231f20;fill-opacity:1;fill-rule:nonzero;stroke:none"
         transform="matrix(0.13333333,0,0,-0.13333333,0,1715.8933)" />
      <path
         id="path3"
         d="m 3458.31,9917.26 124.98,-31.91 140.96,30.58 97.52,68.19 34.66,84.48 78.64,46.4 84.12,-34.7 46.54,-78.5 5.85,-81.35 -50.8,-146.81 -72.6,-127.92 -138.03,-71.27 594.83,-591.37 206.19,-25.91 200.53,55.31 151.06,174.46 271.8,-82.71 234.03,-126.34 199.37,-210.78 98.75,-238.14 609.02,-222.08 533.66,-309.46 498.47,-393.46 423.12,-480.84 325.77,-549.19 1024.95,-887.49 155.58,-172.87 77.11,-219.41 -233.76,-446.25 -342.83,-351.84 56.65,65.42 -299.2,-389.61 -408.23,-295.2 -228.18,44.94 -193.35,129.26 -1046.75,906.38 -571.25,265.69 -517.53,371.81 -438.9,418.18 -385.52,524.62 -285.09,552.11 -271.62,82.56 -215.33,148.29 -180.31,232.45 -98.93,238.29 151.06,174.45 26.07,206.38 -58.24,241.22 -670.18,503.99 -50.79,-146.81 -94.42,-109.04 -159.84,-52.38 -81.38,-5.86 -84.3,34.85 -24.55,59.41 34.66,84.47 78.64,46.38 53.54,106.27 10.1,143.87 -71.26,138.03 -64.09,322.6 c 0,0 -253.75,276.16 -248.39,331.93 5.37,55.77 225.98,346.87 348.39,268.37 117.02,-75.1 277.65,-164.15 277.65,-164.15 l 331.38,-57.99"
         style="fill:#231f20;fill-opacity:1;fill-rule:nonzero;stroke:none"
         transform="matrix(0.13333333,0,0,-0.13333333,0,1715.8933)" />
      <path
         id="path4"
         d="m 1779.4,8413.06 115.74,-56.98 144.23,0.89 109.48,46.64 51.31,75.51 86.51,29.19 75.18,-51.27 29.38,-86.35 -11.05,-80.84 -79.95,-133.2 -97.39,-110.22 -149.75,-41.31 460.26,-701.21 196.43,-67.83 207.62,12.82 183.76,139.6 248.93,-136.92 202.99,-171.84 151.68,-247.33 47.58,-253.37 550.21,-342.76 458.49,-412.75 406.72,-487.7 314.99,-557.69 205.67,-604.51 820.16,-1079.59 116.63,-201.21 30.28,-230.63 -320.69,-388.5 -407.93,-273.7 68.9,52.4 -373.03,-319.6 -460.29,-204.8 -214.03,91 -162.57,166.3 -837.61,1102.52 -504.28,377.67 -429.84,470.44 -343.34,499.62 -269.2,592.78 -165.25,599 -248.79,136.73 -180.16,189.47 -128.56,264.61 -47.73,253.55 183.76,139.6 68.02,196.58 -7.3,248.04 -552,631.23 -79.95,-133.2 -114.85,-87.25 -167.192,-18.33 -80.844,11.03 -75.324,51.46 -11.781,63.19 51.316,75.52 86.5,29.19 74.285,92.96 39.52,138.71 -41.3,149.75 3.74,328.88 c 0,0 -191.428,322.5 -174.694,375.98 16.738,53.47 292.584,292.89 396.194,190.8 99.04,-97.6 237.89,-217.77 237.89,-217.77 l 312.32,-125"
         style="fill:#231f20;fill-opacity:1;fill-rule:nonzero;stroke:none"
         transform="matrix(0.13333333,0,0,-0.13333333,0,1715.8933)" />
      <path
         id="path5"
         d="M 3273.74,8586.91 C 2943.23,8270.1 2805.89,8151.95 2443.26,7872.86 l 276.21,-393.77 c 405.03,310.25 588.34,468.47 954.86,823.85 l -400.59,283.97"
         style="fill:#231f20;fill-opacity:1;fill-rule:nonzero;stroke:none"
         transform="matrix(0.13333333,0,0,-0.13333333,0,1715.8933)" />
      <path
         id="path6"
         d="m 4971.93,10530.8 c -124.64,-180 -179.81,-251.5 -314.24,-426 -179.25,-232.62 -281.52,-361.99 -474.64,-580.28 l 370.55,-307.49 c 202.32,228.41 297.66,350.47 485.33,594.01 152.69,198.16 233.76,305.76 374.29,510.76 l -441.29,209"
         style="fill:#231f20;fill-opacity:1;fill-rule:nonzero;stroke:none"
         transform="matrix(0.13333333,0,0,-0.13333333,0,1715.8933)" />
      <path
         id="path7"
         d="M 1368.6,7103.89 C 1215.07,7005.12 1144.13,6963.38 985.879,6870.88 702.973,6705.5 421.934,6552.28 129.063,6410.06 l 0.515,-1.02 C 52.7578,6367.3 0,6286.87 0,6193.29 c 0,-136.15 110.375,-246.52 246.527,-246.52 37.676,0 72.981,9.12 104.918,24.24 l 0.34,-0.69 c 311.375,150.51 576.418,309.35 876.985,485.05 184.51,107.86 299.23,176.77 477.55,292.81 l -337.72,355.71"
         style="fill:#231f20;fill-opacity:1;fill-rule:nonzero;stroke:none"
         transform="matrix(0.13333333,0,0,-0.13333333,0,1715.8933)" />
      <path
         id="path8"
         d="m 6676.42,12542.5 -0.96,0.3 c 8.66,25.2 14.36,51.8 14.36,79.9 0,136.1 -110.36,246.5 -246.51,246.5 -105.01,0 -194.06,-65.9 -229.59,-158.4 -180.19,-404.9 -297.67,-652.6 -519.65,-1037 l 397.88,-275.5 c 247.42,425.8 374.77,668.7 572.12,1116.7 3.2,6.5 6.26,13 8.88,19.8 1.14,2.6 2.32,5.1 3.47,7.7"
         style="fill:#231f20;fill-opacity:1;fill-rule:nonzero;stroke:none"
         transform="matrix(0.13333333,0,0,-0.13333333,0,1715.8933)" />
      <path
         id="path9"
         d="m 13071.4,10017.8 c -104.6,0 -194,-64.49 -231.2,-155.76 v 0.03 h -1.6 c -107.9,-245.22 -219.2,-488.81 -336.9,-729.39 l -1.8,0.89 -109.3,-219.89 1.9,-0.91 c -542.6,-1075.3 -1184.3,-2102.2 -1921,-3074.64 l 0.3,-0.44 -17,-22.12 c -3.7,-4.82 -7.2,-9.73 -10.8,-14.54 l -0.3,0.18 -149.8,-194.61 0.2,-0.09 c -1.9,-2.43 -3.9,-4.77 -5.8,-7.19 l -8.3,-10.85 -0.3,0.09 C 9537.81,4639.81 8720.39,3767.58 7833.25,2976.04 l 0.36,-0.58 -29.6,-25.94 c -7.51,-6.67 -14.81,-13.57 -22.32,-20.23 l -0.34,0.38 -184.72,-161.77 0.25,-0.3 c -5.46,-4.7 -11.1,-9.3 -16.58,-14 l -20.61,-18.1 -0.43,0.3 C 6654.45,1957.9 5680.07,1261.8 4640.89,652.902 l 0.11,-0.203 -10.17,-5.898 c -2.54,-1.5 -5.03,-3 -7.58,-4.5 -4.91,-2.899 -9.83,-5.699 -14.73,-8.602 l -0.13,0.199 -212.93,-122.296 0.21,-0.301 c -5.84,-3.301 -11.74,-6.5 -17.64,-9.699 l -2.32,-1.301 h -0.05 c -10.93,-5.899 -21.88,-11.801 -32.73,-17.903 0.05,0 0.09,0 0.14,0 C 4249.6,446.301 4183.05,356.102 4183.05,249.898 4183.05,111.902 4294.93,0 4432.95,0 c 52.44,0 100.99,16.3008 141.18,43.8984 l -0.15,-0.2968 C 6877.45,1347.5 9147.73,3297.66 10766.1,5397.79 11787.6,6723.4 12634.5,8149.99 13299,9661.14 v 4.42 c 14.1,31.29 22.3,65.76 22.3,102.31 0,138.02 -111.9,249.93 -249.9,249.93"
         style="fill:#231f20;fill-opacity:1;fill-rule:nonzero;stroke:none"
         transform="matrix(0.13333333,0,0,-0.13333333,0,1715.8933)" />
    </g>
  </g>
</svg>
