<?xml version="1.0" encoding="UTF-8" standalone="no"?>
<!-- Created with Inkscape (http://www.inkscape.org/) -->

<svg
   version="1.1"
   id="svg1"
   width="1063.3467"
   height="1652.16"
   viewBox="0 0 1063.3467 1652.16"
   sodipodi:docname="animal_hygiene.eps"
   xmlns:inkscape="http://www.inkscape.org/namespaces/inkscape"
   xmlns:sodipodi="http://sodipodi.sourceforge.net/DTD/sodipodi-0.dtd"
   xmlns="http://www.w3.org/2000/svg"
   xmlns:svg="http://www.w3.org/2000/svg">
  <defs
     id="defs1" />
  <sodipodi:namedview
     id="namedview1"
     pagecolor="#ffffff"
     bordercolor="#000000"
     borderopacity="0.25"
     inkscape:showpageshadow="2"
     inkscape:pageopacity="0.0"
     inkscape:pagecheckerboard="0"
     inkscape:deskcolor="#d1d1d1">
    <inkscape:page
       x="0"
       y="0"
       inkscape:label="1"
       id="page1"
       width="1063.3467"
       height="1652.16"
       margin="0"
       bleed="0" />
  </sodipodi:namedview>
  <g
     id="g1"
     inkscape:groupmode="layer"
     inkscape:label="1">
    <g
       id="group-R5">
      <path
         id="path2"
         d="M 3987.55,579 C 2091.09,579 553.707,2116.4 553.707,4012.88 c 0,713.09 217.391,1375.4 589.473,1924.32 2.84,-22.2 7.48,-44.98 14.72,-68.49 124.04,-403.02 207.64,-527.25 552.04,-956.63 v -1944.1 c 0,-203.59 165.03,-368.5 368.58,-368.5 203.54,0 368.53,164.91 368.53,368.5 v 1291.31 c 163.18,-98.85 342.9,-183.48 540.69,-249.69 V 2967.98 c 0,-203.59 164.99,-368.5 368.43,-368.5 203.65,0 368.56,164.91 368.56,368.5 v 894.9 c 93.29,-7.25 189.15,-11.42 288.48,-11.42 86.58,0 170.44,3.03 252.33,8.58 v -892.06 c 0,-203.59 165.03,-368.5 368.53,-368.5 203.55,0 368.58,164.91 368.58,368.5 v 1028.77 c 196.81,62.32 376.59,142.71 540.84,236.91 V 2967.98 c 0,-203.59 164.91,-368.5 368.35,-368.5 203.62,0 368.52,164.91 368.52,368.5 v 1877.97 c 250.04,288.55 486.7,652.83 632.99,965.22 C 7235.5,5288.14 7421.39,4672.23 7421.39,4012.88 7421.39,2116.4 5884.01,579 3987.55,579 Z m 3880,4387.64 c -162.88,660.16 -474.99,1253.61 -844.79,1816.1 -400.18,608.68 -818.7,1205.32 -1229.68,1806.89 -797.41,1167.19 -1484.9,2386.67 -1801.57,3801.57 -11.8,-33.1 -19.33,-48.9 -23.14,-65.7 C 3811.2,11636.2 3557.61,10982.4 3241.88,10351.6 2816.37,9501.33 2279.12,8720.98 1736.13,7944.16 1314.64,7341.17 892.145,6739.16 545.023,6087.91 84.9141,5224.68 -106.613,4317.87 58.4414,3343.38 212.238,2435.34 576.594,1635.8 1257.49,1002.2 1988.25,322.102 2869.15,23.6992 3857.86,1.40234 4668.84,-16.8008 5434.63,134.301 6135.74,558.199 7780.29,1552.6 8205.05,3598.64 7867.55,4966.64"
         style="fill:#231f20;fill-opacity:1;fill-rule:nonzero;stroke:none"
         transform="matrix(0.13333333,0,0,-0.13333333,0,1652.16)" />
    </g>
  </g>
</svg>
