<?xml version="1.0" encoding="UTF-8" standalone="no"?>
<!-- Created with Inkscape (http://www.inkscape.org/) -->

<svg
   version="1.1"
   id="svg1"
   width="1680.04"
   height="1541.6667"
   viewBox="0 0 1680.04 1541.6667"
   sodipodi:docname="cow_comfort.eps"
   xmlns:inkscape="http://www.inkscape.org/namespaces/inkscape"
   xmlns:sodipodi="http://sodipodi.sourceforge.net/DTD/sodipodi-0.dtd"
   xmlns="http://www.w3.org/2000/svg"
   xmlns:svg="http://www.w3.org/2000/svg">
  <defs
     id="defs1" />
  <sodipodi:namedview
     id="namedview1"
     pagecolor="#ffffff"
     bordercolor="#000000"
     borderopacity="0.25"
     inkscape:showpageshadow="2"
     inkscape:pageopacity="0.0"
     inkscape:pagecheckerboard="0"
     inkscape:deskcolor="#d1d1d1">
    <inkscape:page
       x="0"
       y="0"
       inkscape:label="1"
       id="page1"
       width="1680.04"
       height="1541.6667"
       margin="0"
       bleed="0" />
  </sodipodi:namedview>
  <g
     id="g1"
     inkscape:groupmode="layer"
     inkscape:label="1">
    <g
       id="group-R5">
      <path
         id="path2"
         d="m 7126.75,7815.92 c -231.78,-240.32 -809.5,-594.38 -809.5,-594.38 0,0 -537.12,316.82 -792.43,559.36 -570.86,542.43 -951.68,1527.92 -641.18,2065.3 449.32,777.6 1433.61,22.86 1433.61,22.86 0,0 813.06,709.04 1369.4,0 353.6,-450.67 -3.56,-1476.36 -559.9,-2053.14 z m 5438.85,1917.97 c -181.1,483.21 -1010.8,479.41 -1631,457.91 -620.2,-21 -1154.33,-698.57 -1154.33,-698.57 0,0 -489.86,237.16 -609.72,282.74 -120.06,45.1 -334.36,86.04 -334.36,86.04 0,0 -52.64,61.92 -75.97,147.19 -48.6,177.6 -226.81,464.5 -660.4,745.3 -426.19,275.7 -588.27,517.1 -695.89,593.4 -107.83,76 -217.87,240.7 -584.04,211.1 -145.13,-11.7 -306.94,-14.5 -546.79,-14.8 l 0.27,0.5 c -239.86,0.4 -347.68,2.6 -492.89,14.3 -366.09,29.6 -476.21,-135.1 -583.97,-211.1 -107.69,-76.3 -269.63,-317.7 -695.82,-593.4 -433.73,-280.8 -611.87,-567.7 -660.61,-745.3 -23.32,-85.34 -75.76,-147.19 -75.76,-147.19 0,0 -214.44,-40.94 -334.37,-86.04 -119.92,-45.58 -609.91,-282.74 -609.91,-282.74 0,0 -533.96,677.57 -1154.29,698.57 -620.21,21.5 -1449.875,25.3 -1631.043,-457.91 -181.098,-482.87 385.727,-1148.72 797.402,-1508.5 411.541,-359.84 687.161,-630.82 1170.221,-531.93 482.94,98.48 422.03,230.5 655.9,207.92 370,-35.56 551.84,-198.24 642.39,-331.08 -61.18,-268.29 -91.23,-568.77 -55.53,-910.67 38.25,-366.03 1262.92,-3980.43 1285.31,-4166.9 48.2,-403.08 -48.6,-710.69 -48.6,-710.69 -72.47,-192.73 -45.85,-279.94 -59.16,-429.44 -13.31,-149.6 55.73,-533.498 92.84,-625.799 50.14,-124.602 219.48,-501.899 299.21,-570.5 79.79,-68.5002 166.17,-149.50022 631.36,-149.50022 465.18,0 885.19,-3.5 885.19,-3.5 157.11,-7 357.03,-1.69922 823.15,3.5 C 7619.65,12 7706.03,87.8008 7785.82,156.301 c 79.73,68.601 249,445.898 299.01,570.5 37.18,92.301 106.35,476.199 93.04,625.799 -13.31,149.5 13.31,236.71 -59.36,429.44 0,0 -96.8,307.61 -48.6,710.69 22.45,186.47 1247.26,3800.87 1285.51,4166.9 35.69,341.9 5.58,642.45 -55.66,910.74 90.61,132.77 272.59,295.45 642.52,331.01 233.82,22.58 172.72,-109.44 655.82,-207.92 483.1,-98.89 758.6,172.09 1170.2,531.93 411.6,359.78 978.4,1025.63 797.3,1508.5"
         style="fill:#231f20;fill-opacity:1;fill-rule:nonzero;stroke:none"
         transform="matrix(0.13333333,0,0,-0.13333333,0,1541.6667)" />
    </g>
  </g>
</svg>
