<?xml version="1.0" encoding="UTF-8" standalone="no"?>
<!-- Created with Inkscape (http://www.inkscape.org/) -->

<svg
   version="1.1"
   id="svg1"
   width="1225.5067"
   height="1863.0933"
   viewBox="0 0 1225.5067 1863.0933"
   sodipodi:docname="robotics.eps"
   xmlns:inkscape="http://www.inkscape.org/namespaces/inkscape"
   xmlns:sodipodi="http://sodipodi.sourceforge.net/DTD/sodipodi-0.dtd"
   xmlns="http://www.w3.org/2000/svg"
   xmlns:svg="http://www.w3.org/2000/svg">
  <defs
     id="defs1" />
  <sodipodi:namedview
     id="namedview1"
     pagecolor="#ffffff"
     bordercolor="#000000"
     borderopacity="0.25"
     inkscape:showpageshadow="2"
     inkscape:pageopacity="0.0"
     inkscape:pagecheckerboard="0"
     inkscape:deskcolor="#d1d1d1">
    <inkscape:page
       x="0"
       y="0"
       inkscape:label="1"
       id="page1"
       width="1225.5067"
       height="1863.0933"
       margin="0"
       bleed="0" />
  </sodipodi:namedview>
  <g
     id="g1"
     inkscape:groupmode="layer"
     inkscape:label="1">
    <g
       id="group-R5">
      <path
         id="path2"
         d="m 0,13973.2 c 195.527,-552.9 479.078,-1124.9 945.785,-1706.7 V 9181.73 c 0,-323.04 261.845,-584.7 584.815,-584.7 322.96,0 584.75,261.66 584.75,584.7 v 2048.97 c 258.93,-156.9 544.08,-291.2 857.92,-396.2 V 9181.73 c 0,-323.04 261.79,-584.7 584.58,-584.7 323.14,0 584.81,261.66 584.81,584.7 v 1419.97 c 148.01,-11.5 300.12,-18.1 457.71,-18.1 137.39,0 270.44,4.8 400.39,13.6 V 9181.73 c 0,-323.04 261.85,-584.7 584.76,-584.7 322.97,0 584.81,261.66 584.81,584.7 v 1632.37 c 312.28,98.8 597.54,226.4 858.17,375.9 V 9181.73 c 0,-323.04 261.66,-584.7 584.45,-584.7 323.09,0 584.75,261.66 584.75,584.7 v 2979.77 c 434.72,501.7 746.93,1062.2 969.96,1585.9 39.12,91.9 27.14,165.1 -17.54,225.8 L 0,13973.2"
         style="fill:#040606;fill-opacity:1;fill-rule:nonzero;stroke:none"
         transform="matrix(0.13333333,0,0,-0.13333333,0,1863.0933)" />
      <path
         id="path3"
         d="m 5071.01,5937.39 c 93.7,-305.1 435.76,-226.59 435.76,-226.59 l 5.13,-0.01 86.01,-2230.79 c 0,0 247.73,-106.8 552.73,-106.8 305,0 504.85,106.8 504.85,106.8 l 47.65,2226.97 65.07,-0.21 c 304.21,-2.77 391.78,443.5 416.82,1051.85 21.14,514.04 -514.43,455.4 -618.11,478.6 -103.67,23.22 -511.83,19.51 -511.83,19.51 -1231.76,3.79 -1111.26,-414.09 -1111.26,-414.09 0,0 33.51,-600.14 127.18,-905.24"
         style="fill:#231f20;fill-opacity:1;fill-rule:nonzero;stroke:none"
         transform="matrix(0.13333333,0,0,-0.13333333,0,1863.0933)" />
      <path
         id="path4"
         d="m 2271.01,5937.39 c 93.7,-305.1 435.76,-226.59 435.76,-226.59 l 5.13,-0.01 86.01,-2230.79 c 0,0 247.73,-106.8 552.73,-106.8 305,0 504.85,106.8 504.85,106.8 l 47.65,2226.97 65.07,-0.21 c 304.21,-2.77 391.79,443.5 416.82,1051.85 21.14,514.04 -514.43,455.4 -618.12,478.6 -103.66,23.22 -511.82,19.51 -511.82,19.51 -1231.76,3.79 -1111.26,-414.09 -1111.26,-414.09 0,0 33.5,-600.14 127.18,-905.24"
         style="fill:#231f20;fill-opacity:1;fill-rule:nonzero;stroke:none"
         transform="matrix(0.13333333,0,0,-0.13333333,0,1863.0933)" />
      <path
         id="path5"
         d="m 7585.64,4038.13 h -754.13 l 10,-670.03 c 0,0 -250.87,-177 -691.28,-178.5 -454.59,-1.4 -748.65,177.5 -748.65,177.5 v 671.03 H 5198.84 4231.63 4028.89 V 3367.1 c 0,0 -294.06,-178.9 -748.64,-177.5 -440.42,1.5 -691.28,178.5 -691.28,178.5 l 10,670.03 H 2168.99 1834.83 L 1031.63,0 h 3214.01 939.19 3104.01 l -703.2,4038.13"
         style="fill:#231f20;fill-opacity:1;fill-rule:nonzero;stroke:none"
         transform="matrix(0.13333333,0,0,-0.13333333,0,1863.0933)" />
    </g>
  </g>
</svg>
